<svg xmlns="http://www.w3.org/2000/svg" viewBox="0 0 390 84" role="img" aria-label="Buro Coen"><rect width="84" height="84" fill="#d6a82e"/><path d="M22 21h20c15 0 24 7 24 19 0 6-3 11-8 14 7 3 10 8 10 14 0 13-10 20-26 20H22V21zm19 27c7 0 11-3 11-8s-4-8-11-8h-5v16h5zm2 29c8 0 12-3 12-9s-4-9-12-9h-7v18h7z" fill="#101820" transform="translate(0,-12) scale(.95)"/><text x="108" y="54" font-family="Arial,Helvetica,sans-serif" font-size="38" font-weight="700" letter-spacing="2" fill="#101820">BURO COEN</text></svg>